<?xml version="1.0" encoding="UTF-8" standalone="no"?>
<!-- Created with Inkscape (http://www.inkscape.org/) -->

<svg
   width="103.40722mm"
   height="103.40722mm"
   viewBox="0 0 103.40722 103.40722"
   version="1.1"
   id="svg5"
   inkscape:version="1.1.2 (0a00cf5339, 2022-02-04)"
   sodipodi:docname="logo.svg"
   xmlns:inkscape="http://www.inkscape.org/namespaces/inkscape"
   xmlns:sodipodi="http://sodipodi.sourceforge.net/DTD/sodipodi-0.dtd"
   xmlns="http://www.w3.org/2000/svg"
   xmlns:svg="http://www.w3.org/2000/svg">
  <sodipodi:namedview
     id="namedview7"
     pagecolor="#ffffff"
     bordercolor="#666666"
     borderopacity="1.0"
     inkscape:pageshadow="2"
     inkscape:pageopacity="0.0"
     inkscape:pagecheckerboard="0"
     inkscape:document-units="mm"
     showgrid="false"
     fit-margin-top="0"
     fit-margin-left="0"
     fit-margin-right="0"
     fit-margin-bottom="0"
     inkscape:zoom="0.54787458"
     inkscape:cx="-56.582293"
     inkscape:cy="360.48396"
     inkscape:window-width="1060"
     inkscape:window-height="1364"
     inkscape:window-x="0"
     inkscape:window-y="0"
     inkscape:window-maximized="1"
     inkscape:current-layer="layer1" />
  <defs
     id="defs2" />
  <g
     inkscape:label="Layer 1"
     inkscape:groupmode="layer"
     id="layer1"
     transform="translate(-38.358589,-61.878445)">
    <rect
       style="opacity:1;fill:#000000;fill-opacity:1;stroke:none;stroke-width:5.28451;stroke-miterlimit:4;stroke-dasharray:none;stroke-opacity:1"
       id="rect22921"
       width="103.40722"
       height="103.40722"
       x="38.358589"
       y="61.878445"
       inkscape:export-filename="/home/bigmac/Dropbox/code/kairos/logo/logo.png"
       inkscape:export-xdpi="90"
       inkscape:export-ydpi="90" />
    <g
       aria-label="και ρός"
       id="text2542"
       style="font-size:50.8px;line-height:0.85;font-family:'TeX Gyre Pagella';-inkscape-font-specification:'TeX Gyre Pagella';letter-spacing:0px;word-spacing:0px;fill:#ffffff;stroke-width:0.264583"
       inkscape:export-filename="/home/bigmac/Dropbox/code/kairos/logo/logo.png"
       inkscape:export-xdpi="90"
       inkscape:export-ydpi="90">
      <path
         d="m 61.490278,72.87408 v 2.629297 h -4.117579 v 10.269141 l 11.1125,-10.269141 H 64.690082 V 72.87408 h 11.931055 v 2.629297 h -4.514453 l -7.838282,7.267773 10.021094,13.841016 h 3.795117 v 2.629297 H 65.086957 v -2.629297 h 3.770313 l -7.887891,-10.839648 -3.59668,3.348632 v 7.491016 h 4.117579 v 2.629297 H 48.691059 v -2.629297 h 4.117578 V 75.503377 H 48.691059 V 72.87408 Z"
         style="font-family:'DejaVu Serif';-inkscape-font-specification:'DejaVu Serif, Normal';text-align:center;text-anchor:middle;fill:#ffffff"
         id="path22868" />
      <path
         d="m 100.63207,92.742635 -0.992183,2.75332 q -0.768945,2.133203 -3.125391,3.497461 -1.53789,0.892969 -4.266406,0.868164 -4.886523,-0.04961 -7.9375,-3.844727 -3.075781,-3.869531 -3.075781,-10.070703 0,-6.077148 3.075781,-10.045898 2.902149,-3.745508 9.028906,-3.720703 4.216797,0 6.35,1.661914 1.885154,1.463477 2.604494,4.663281 l 0.19844,0.917774 0.96738,-2.753321 q 0.89297,-2.604492 3.44785,-3.894335 h 2.50527 v 1.463476 q -2.38125,0.744141 -3.22461,3.075781 l -2.57968,7.044531 1.73632,7.590235 q 0.89297,3.894336 1.83555,4.316015 1.36426,0.620117 4.46485,-1.240234 v 3.001367 q -5.03536,2.902147 -8.58243,-0.124023 -1.6123,-1.389063 -2.05879,-3.398243 z m -1.066597,-4.861719 -1.562696,-7.292578 q -1.240234,-5.804297 -4.613671,-5.829101 -2.852539,-0.02481 -5.010547,3.026171 -1.810742,2.505274 -1.810742,8.259961 0,5.457031 1.810742,8.259961 1.934765,3.050976 5.283398,2.80293 2.852539,-0.223243 4.911328,-6.300391 z"
         style="font-family:'DejaVu Serif';-inkscape-font-specification:'DejaVu Serif, Normal';text-align:center;text-anchor:middle;fill:#ffffff"
         id="path22870" />
      <path
         d="m 119.18598,92.048103 0.0248,-16.519921 h -4.36563 V 72.87408 h 8.92969 v 19.174023 q 0,3.447852 1.83555,4.316016 1.38906,0.595312 4.46484,-1.240234 v 3.001367 q -5.06015,2.902148 -8.58242,-0.124024 -2.30684,-1.984375 -2.30684,-5.953125 z"
         style="font-family:'DejaVu Serif';-inkscape-font-specification:'DejaVu Serif, Normal';text-align:center;text-anchor:middle;fill:#ffffff"
         id="path22872" />
      <path
         d="m 53.255121,129.90719 v 2.60449 q 0,4.7625 1.810743,7.26778 1.835546,2.48046 5.308203,2.48046 3.49746,0 5.283398,-2.80292 1.810742,-2.80293 1.810742,-8.25997 0,-5.68027 -1.785937,-8.25996 -2.158008,-3.02617 -5.308203,-3.02617 -3.299024,0 -5.308203,2.75332 -1.810743,2.50528 -1.810743,7.24297 z m 0,25.05273 h -4.564062 v -23.56445 q 0,-6.22597 2.158008,-9.25215 2.406054,-2.82773 4.067968,-3.69589 2.182813,-1.14102 5.382618,-1.14102 6.349999,0 9.425781,3.84473 3.075781,3.84472 3.075781,10.04589 0,6.20118 -3.075781,10.07071 -3.075782,3.84472 -7.9375,3.84472 -3.050977,0 -5.13457,-1.16582 -2.058789,-1.19062 -3.398243,-3.67109 z"
         style="font-family:'DejaVu Serif';-inkscape-font-specification:'DejaVu Serif, Normal';text-align:center;text-anchor:middle;fill:#ffffff"
         id="path22874" />
      <path
         d="m 90.635785,142.6568 q 3.671094,0 5.531445,-2.90215 1.885156,-2.90215 1.885156,-8.55762 0,-5.65546 -1.885156,-8.53281 -1.860351,-2.90215 -5.531445,-2.90215 -3.671094,0 -5.55625,2.90215 -1.860351,2.87735 -1.860351,8.53281 0,5.65547 1.885156,8.55762 1.885156,2.90215 5.531445,2.90215 z m 0,2.45566 q -5.754687,0 -9.252148,-3.79511 -3.497461,-3.81993 -3.497461,-10.12032 0,-6.30039 3.472656,-10.0955 3.497461,-3.79512 9.276953,-3.79512 5.779492,0 9.252148,3.79512 3.497457,3.79511 3.497457,10.0955 0,6.30039 -3.497457,10.12032 -3.472656,3.79511 -9.252148,3.79511 z m 3.621484,-41.34941 h 4.936133 l -8.433594,9.32656 H 87.85766 Z"
         style="font-family:'DejaVu Serif';-inkscape-font-specification:'DejaVu Serif, Normal';text-align:center;text-anchor:middle;fill:#ffffff"
         id="path22876" />
      <path
         d="m 122.50981,142.60719 q 7.76386,-0.0744 8.83046,5.43223 0.54571,2.82773 -2.10839,5.06015 -2.23243,1.88516 -6.97012,1.88516 v -2.67891 q 4.96094,0 4.96094,-3.89433 0,-3.29903 -4.83692,-3.29903 -6.94531,-0.0248 -10.41797,-3.79511 -3.49746,-3.81993 -3.49746,-10.12032 0,-6.32519 3.49746,-10.0955 3.49746,-3.79512 9.25215,-3.79512 2.50528,0 4.98574,0.59531 2.48047,0.57051 4.98575,1.76113 v 6.74688 h -2.65411 q -0.52089,-3.47266 -2.28203,-5.06016 -1.73632,-1.5875 -4.98574,-1.5875 -3.6959,0 -5.58105,2.87735 -1.88516,2.85254 -1.88516,8.55761 0,5.7795 1.86035,8.58243 1.90996,2.82773 6.8461,2.82773 z"
         style="font-family:'DejaVu Serif';-inkscape-font-specification:'DejaVu Serif, Normal';text-align:center;text-anchor:middle;fill:#ffffff"
         id="path22878" />
    </g>
  </g>
</svg>
